<?xml version="1.0" encoding="UTF-8"?>
<svg version="1.1" viewBox="0 0 32 32" xmlns="http://www.w3.org/2000/svg" xmlns:xlink="http://www.w3.org/1999/xlink">
    <!--Generated by IJSVG (https://github.com/curthard89/IJSVG)-->
    <path d="M332.585,436.51c-1.444,1.403 -2.981,2.86 -2.981,2.86l-2.65,-4.524c2.775,-0.676 5.174,-2.278 6.847,-4.458l2.898,4.946c0,0 -2.066,0.594 -4.114,1.176v0Zm-8.585,-3.502c-5.518,0 -9.99,-4.483 -9.99,-10.011c0,-5.528 4.472,-10.011 9.99,-10.011c5.518,0 9.99,4.483 9.99,10.011c0,5.528 -4.472,10.011 -9.99,10.011v0Zm-5.604,6.362c0,0 -1.537,-1.457 -2.981,-2.86c-2.048,-0.582 -4.114,-1.176 -4.114,-1.176l2.898,-4.946c1.673,2.18 4.072,3.782 6.847,4.458l-2.65,4.524v0Zm16.625,-10.934c0.803,-1.611 1.267,-3.415 1.267,-5.33c0,-6.686 -5.502,-12.106 -12.288,-12.106c-6.786,0 -12.288,5.42 -12.288,12.106c0,1.915 0.464,3.719 1.267,5.33l-4.988,8.51c0,0 3.163,0.635 6.372,1.295c2.14,2.382 4.27,4.759 4.27,4.759l4.586,-7.826c0.26,0.016 0.517,0.039 0.781,0.039c0.264,0 0.521,-0.023 0.781,-0.039l4.586,7.826c0,0 2.13,-2.377 4.27,-4.759c3.209,-0.66 6.372,-1.295 6.372,-1.295l-4.988,-8.51v0Zm-11.021,-0.436c-2.762,0 -5,-2.238 -5,-5c0,-2.762 2.238,-5 5,-5c2.762,0 5,2.238 5,5c0,2.762 -2.238,5 -5,5v0Zm0,-12c-3.866,0 -7,3.134 -7,7c0,3.866 3.134,7 7,7c3.866,0 7,-3.134 7,-7c0,-3.866 -3.134,-7 -7,-7v0Z" transform="matrix(1,0,0,1,-308,-411)" fill-rule="evenodd" fill="#000" stroke="none"></path>
</svg>